<?xml version="1.0" encoding="utf-8"?>
<!-- Generator: Adobe Illustrator 22.0.1, SVG Export Plug-In . SVG Version: 6.00 Build 0)  -->
<svg version="1.1" id="Capa_1" xmlns="http://www.w3.org/2000/svg" xmlns:xlink="http://www.w3.org/1999/xlink" x="0px" y="0px"
	 viewBox="0 0 201.4 201.4" style="enable-background:new 0 0 201.4 201.4;" xml:space="preserve">
<style type="text/css">
	.st0{fill:#8C6B3B;}
	.st1{fill:#83D816;}
	.st2{fill:#2A8EE6;}
	.st3{fill:#ED5481;}
	.st4{fill:#1890FF;}
</style>
<path d="M126.3,51.2H75.1c-1.9,0-3.4-1.5-3.4-3.4V29c0-16,13-29,29-29s29,13,29,29v18.8C129.7,49.7,128.2,51.2,126.3,51.2z
	 M78.5,44.4h44.4V29c0-12.2-10-22.2-22.2-22.2S78.5,16.8,78.5,29V44.4z"/>
<polygon class="st0" points="175.8,64.9 25.6,64.9 35.8,47.8 165.5,47.8 "/>
<path d="M175.8,68.3H25.6c-1.2,0-2.4-0.7-3-1.7c-0.6-1.1-0.6-2.4,0-3.4L32.9,46c0.6-1,1.7-1.7,2.9-1.7h129.7c1.2,0,2.3,0.6,2.9,1.7
	l10.2,17.1c0.6,1.1,0.6,2.4,0,3.4C178.1,67.6,177,68.3,175.8,68.3z M31.6,61.4h138.1l-6.1-10.2H37.8L31.6,61.4z"/>
<rect x="104.1" y="29" transform="matrix(0.2277 -0.9737 0.9737 0.2277 48.6677 167.1469)" class="st1" width="51.2" height="47.8"/>
<path d="M147.1,86.7c-0.3,0-0.5,0-0.8-0.1L99.8,75.7c-0.9-0.2-1.6-0.8-2.1-1.5c-0.5-0.8-0.6-1.7-0.4-2.6l11.7-49.9
	c0.4-1.8,2.3-3,4.1-2.5l46.5,10.9c0.9,0.2,1.6,0.8,2.1,1.5c0.5,0.8,0.6,1.7,0.4,2.6l-11.7,49.9C150.1,85.6,148.7,86.7,147.1,86.7z
	 M104.7,69.8l39.9,9.3L154.7,36l-39.9-9.3L104.7,69.8z"/>
<rect x="42.3" y="16.9" transform="matrix(0.9931 -0.1174 0.1174 0.9931 -5.1131 8.6737)" class="st2" width="57.5" height="61.6"/>
<path d="M46.1,85.1c-1.7,0-3.2-1.3-3.4-3l-7.2-61.2c-0.2-1.9,1.1-3.6,3-3.8l57.1-6.7c0.9-0.1,1.8,0.1,2.5,0.7s1.2,1.4,1.3,2.3
	l7.2,61.2c0.1,0.9-0.1,1.8-0.7,2.5c-0.6,0.7-1.4,1.2-2.3,1.3l-57.1,6.7C46.4,85.1,46.3,85.1,46.1,85.1z M42.7,23.5l6.4,54.4L99.4,72
	L93,17.6L42.7,23.5z"/>
<rect x="70.6" y="42" transform="matrix(0.9723 -0.2338 0.2338 0.9723 -14.0295 25.1029)" class="st3" width="56.6" height="59.5"/>
<path d="M78.3,110.7c-1.5,0-2.9-1.1-3.3-2.6L61.1,50.2c-0.4-1.8,0.7-3.7,2.5-4.1l55-13.2c0.9-0.2,1.8-0.1,2.6,0.4
	c0.8,0.5,1.3,1.2,1.5,2.1l13.9,57.9c0.2,0.9,0.1,1.8-0.4,2.6c-0.5,0.8-1.2,1.3-2.1,1.5l-55,13.2C78.9,110.7,78.6,110.7,78.3,110.7z
	 M68.5,51.9l12.3,51.2l48.3-11.6l-12.3-51.2L68.5,51.9z"/>
<polygon class="st4" points="182.6,198 18.8,198 25.6,64.9 175.8,64.9 "/>
<path d="M182.6,201.4H18.8c-0.9,0-1.8-0.4-2.5-1.1c-0.6-0.7-1-1.6-0.9-2.5l6.8-133.1c0.1-1.8,1.6-3.2,3.4-3.2h150.2
	c1.8,0,3.3,1.4,3.4,3.2l6.8,133.1c0,0.9-0.3,1.8-0.9,2.5C184.4,201,183.5,201.4,182.6,201.4z M22.4,194.6H179l-6.5-126.3H28.8
	L22.4,194.6z"/>
<circle class="st0" cx="126.3" cy="85.3" r="6.8"/>
<path d="M126.3,95.6c-5.6,0-10.2-4.6-10.2-10.2s4.6-10.2,10.2-10.2s10.2,4.6,10.2,10.2S131.9,95.6,126.3,95.6z M126.3,81.9
	c-1.9,0-3.4,1.5-3.4,3.4s1.5,3.4,3.4,3.4c1.9,0,3.4-1.5,3.4-3.4S128.2,81.9,126.3,81.9z"/>
<circle class="st0" cx="75.1" cy="85.3" r="6.8"/>
<path d="M75.1,95.6c-5.6,0-10.2-4.6-10.2-10.2s4.6-10.2,10.2-10.2s10.2,4.6,10.2,10.2S80.7,95.6,75.1,95.6z M75.1,81.9
	c-1.9,0-3.4,1.5-3.4,3.4s1.5,3.4,3.4,3.4c1.9,0,3.4-1.5,3.4-3.4S77,81.9,75.1,81.9z"/>
<path d="M100.7,136.5c-16,0-29-13-29-29V88.7c0-1.9,1.5-3.4,3.4-3.4s3.4,1.5,3.4,3.4v18.8c0,12.2,10,22.2,22.2,22.2
	s22.2-10,22.2-22.2V90.1c-0.2-0.4-0.3-0.8-0.3-1.3c0-1.9,1.5-3.4,3.4-3.4h0.3c1.9,0,3.4,1.5,3.4,3.4v18.8
	C129.7,123.5,116.7,136.5,100.7,136.5z"/>
</svg>
