<?xml version="1.0" encoding="utf-8"?>
<!-- Generator: Adobe Illustrator 22.0.1, SVG Export Plug-In . SVG Version: 6.00 Build 0)  -->
<svg version="1.1" id="Layer_1" xmlns="http://www.w3.org/2000/svg" xmlns:xlink="http://www.w3.org/1999/xlink" x="0px" y="0px"
	 viewBox="0 0 406 306" style="enable-background:new 0 0 406 306;" xml:space="preserve">
<style type="text/css">
	.st0{fill:#FFFFFF;}
	.st1{fill:#231F20;}
	.st2{fill:#D1D3D4;}
	.st3{fill:#1890FF;}
</style>
<path class="st0" d="M293.1,49.9l-1.2,8.4l-27.2,191.9H132.3l27.2-191.9l1.2-8.4c0.9-5.7,5.7-9.9,11.5-10.1h112.2
	c4.7-0.1,8.6,3.6,8.8,8.3C293.2,48.7,293.2,49.3,293.1,49.9z"/>
<path class="st1" d="M264.7,250.8H132.3c-0.1,0-0.3-0.1-0.4-0.2c-0.1-0.1-0.1-0.3-0.1-0.4l28.4-200.4c1-5.9,6-10.3,12-10.5h112.2
	c2.7-0.1,5.3,1,7,3c1.8,2.1,2.5,4.8,2.1,7.6l-1.2,8.4l-27.2,192C265.1,250.6,264.9,250.8,264.7,250.8z M132.9,249.8h131.3l28.4-200
	l0,0c0.4-2.4-0.3-4.9-1.8-6.7c-1.6-1.8-3.9-2.8-6.3-2.7H172.2c-5.5,0.2-10.1,4.2-11,9.6l-1.2,8.4L132.9,249.8z"/>
<path class="st2" d="M217.4,139.4h-58.1c-0.1,0-0.3-0.1-0.4-0.2c-0.1-0.1-0.1-0.3-0.1-0.4l8.6-60.4c0-0.3,0.3-0.4,0.5-0.4h58
	c0.3,0,0.5,0.2,0.5,0.5c0,0,0,0.1,0,0.1L218,139C217.9,139.3,217.7,139.5,217.4,139.4z M160,138.4h57l8.4-59.3h-57L160,138.4z"/>
<path class="st2" d="M272.5,79.1h-31c-0.3,0-0.5-0.2-0.5-0.5s0.2-0.5,0.5-0.5h31c0.3,0,0.5,0.2,0.5,0.5
	C273.1,78.9,272.8,79.1,272.5,79.1C272.6,79.1,272.6,79.1,272.5,79.1z"/>
<path class="st2" d="M271.4,87.1h-31c-0.3,0-0.5-0.2-0.5-0.5c0-0.3,0.2-0.5,0.5-0.5h31c0.3,0,0.5,0.2,0.5,0.5
	C271.9,86.9,271.7,87.1,271.4,87.1z"/>
<path class="st2" d="M270.3,95.1h-31c-0.3,0-0.5-0.2-0.5-0.5c0-0.3,0.2-0.5,0.5-0.5h31c0.3,0,0.5,0.2,0.5,0.5S270.6,95.1,270.3,95.1
	z"/>
<path class="st2" d="M269.1,103.2h-31c-0.3,0-0.5-0.2-0.5-0.5c0-0.3,0.2-0.5,0.5-0.5h31c0.3,0,0.5,0.2,0.5,0.5
	C269.6,103,269.4,103.2,269.1,103.2z"/>
<path class="st2" d="M268,111.2h-31c-0.3,0-0.5-0.2-0.5-0.5s0.2-0.5,0.5-0.5h31c0.3,0,0.5,0.2,0.5,0.5S268.2,111.2,268,111.2z"/>
<path class="st2" d="M257.9,119.3h-22c-0.3,0-0.5-0.2-0.5-0.5c0-0.3,0.2-0.5,0.5-0.5h22c0.3,0,0.5,0.2,0.5,0.5
	C258.4,119,258.2,119.3,257.9,119.3z"/>
<path class="st2" d="M262.2,138.9h-27.4c-2.7,0.1-4.9-2-5-4.7c0-0.3,0-0.7,0.1-1l0,0c0.5-3.2,3.2-5.6,6.5-5.7h27.4
	c2.7-0.1,4.9,2,5,4.7c0,0.3,0,0.7-0.1,1l0,0C268.2,136.4,265.5,138.8,262.2,138.9z"/>
<path class="st2" d="M185,218.3h-27.4c-2.7,0.1-4.9-2-5-4.7c0-0.3,0-0.7,0.1-1l0,0c0.5-3.2,3.2-5.6,6.5-5.7h27.4
	c2.7-0.1,4.9,2,5,4.7c0,0.3,0,0.7-0.1,1l0,0C191,215.8,188.2,218.2,185,218.3z"/>
<path class="st2" d="M247.2,218.3h-27.4c-2.7,0.1-4.9-2-5-4.7c0-0.3,0-0.7,0.1-1l0,0c0.5-3.2,3.2-5.6,6.5-5.7h27.4
	c2.7-0.1,4.9,2,5,4.7c0,0.3,0,0.7-0.1,1l0,0C253.2,215.8,250.5,218.2,247.2,218.3z"/>
<path class="st2" d="M197.1,199.6h-46.3c-0.1,0-0.3-0.1-0.4-0.2c-0.1-0.1-0.1-0.3-0.1-0.4l6.1-43.2c0-0.3,0.3-0.4,0.5-0.4h46.3
	c0.1,0,0.3,0.1,0.4,0.2c0.1,0.1,0.1,0.3,0.1,0.4l-6.1,43.2C197.6,199.4,197.4,199.6,197.1,199.6z M151.5,198.6h45.3l6-42.2h-45.3
	L151.5,198.6z"/>
<path class="st2" d="M259.4,199.6h-46.3c-0.1,0-0.3-0.1-0.4-0.2c-0.1-0.1-0.1-0.3-0.1-0.4l6.1-43.2c0-0.2,0.2-0.4,0.5-0.4h46.3
	c0.1,0,0.3,0.1,0.4,0.2c0.1,0.1,0.1,0.3,0.1,0.4l-6.1,43.2C259.8,199.4,259.6,199.6,259.4,199.6z M213.7,198.6H259l6-42.2h-45.3
	L213.7,198.6z"/>
<path class="st2" d="M186.8,235.7c-0.6,0-1.2-0.3-1.6-0.7c-0.4-0.5-0.6-1.1-0.5-1.7c0.2-1.3,1.3-2.3,2.6-2.3c0.6,0,1.2,0.3,1.6,0.7
	c0.4,0.5,0.6,1.1,0.5,1.7C189.3,234.7,188.1,235.7,186.8,235.7z M187.3,232c-0.8,0-1.5,0.6-1.6,1.4c-0.1,0.3,0,0.7,0.3,0.9
	c0.2,0.2,0.5,0.4,0.9,0.4c0.8,0,1.5-0.6,1.6-1.4l0,0c0.1-0.3,0-0.7-0.2-0.9C188,232.1,187.7,232,187.3,232z"/>
<ellipse transform="matrix(0.7317 -0.6816 0.6816 0.7317 -106.2791 196.6701)" class="st2" cx="196.7" cy="233.3" rx="2" ry="1.7"/>
<ellipse transform="matrix(0.7317 -0.6816 0.6816 0.7317 -103.8455 202.7139)" class="st2" cx="205.6" cy="233.3" rx="2" ry="1.7"/>
<ellipse transform="matrix(0.7317 -0.6816 0.6816 0.7317 -101.1127 209.7887)" class="st2" cx="215.9" cy="233.3" rx="2" ry="1.7"/>
<path class="st2" d="M179.9,64.4h-7.7c-0.3,0-0.5-0.2-0.5-0.5c0-0.3,0.2-0.5,0.5-0.5h7.7c0.3,0,0.5,0.2,0.5,0.5
	C180.4,64.2,180.1,64.4,179.9,64.4z"/>
<path class="st2" d="M179.4,67.8h-7.7c-0.3,0-0.5-0.2-0.5-0.5c0-0.3,0.2-0.5,0.5-0.5h7.7c0.3,0,0.5,0.2,0.5,0.5
	C179.9,67.6,179.7,67.8,179.4,67.8z"/>
<path class="st2" d="M178.9,71.3h-7.7c-0.3,0-0.5-0.2-0.5-0.5c0-0.3,0.2-0.5,0.5-0.5h7.7c0.3,0,0.5,0.2,0.5,0.5
	S179.2,71.3,178.9,71.3z"/>
<path class="st3" d="M293.1,49.9l-1.2,8.4H159.6l1.2-8.4c0.9-5.7,5.7-9.9,11.5-10.1h112.2c4.7-0.1,8.6,3.6,8.8,8.3
	C293.2,48.7,293.2,49.3,293.1,49.9z"/>
<path class="st2" d="M230.1,49.6h-14.6c-0.3,0-0.5-0.2-0.5-0.5s0.2-0.5,0.5-0.5h14.6c0.3,0,0.5,0.2,0.5,0.5S230.4,49.6,230.1,49.6z"
	/>
<path class="st2" d="M237.5,49.6h-2.6c-0.3,0-0.5-0.2-0.5-0.5c0-0.3,0.2-0.5,0.5-0.5h2.6c0.3,0,0.5,0.2,0.5,0.5
	S237.8,49.6,237.5,49.6z"/>
<path class="st0" d="M158,115.9l9.5,9.8c0,0,17.1-18.6,17.3-21c0.5-4.2,1.7-8.3,3.5-12.1c0.1-0.2,0.2-0.5,0.5-0.6
	c0.5-0.2,0.9,0.5,1,1.1c0.2,1.4,0.2,2.8-0.1,4.2c1.7-2.3,3.4-4.7,5.2-6.9c0.1-0.2,0.4-0.4,0.6-0.4c0.2,0,0.4,0.1,0.5,0.2
	c1.1,1,2,2.2,2.4,3.6c0.3,0.7,0.5,1.5,0.5,2.3c0.1,4.5-3.9,11.8-8.1,13.6c0,0-19.4,33.3-22.9,32.9c-3.5-0.4-17.3-15.9-17.3-15.9
	L158,115.9z"/>
<path class="st1" d="M167.9,143.1L167.9,143.1c-3.7-0.4-16.3-14.5-17.7-16.1c-0.1-0.2-0.1-0.4,0-0.6l7.4-10.7
	c0.1-0.1,0.2-0.2,0.4-0.2c0.2,0,0.3,0,0.4,0.2l9.1,9.4c6.6-7.2,16.6-18.7,16.8-20.3c0.5-4.2,1.7-8.4,3.5-12.3
	c0.1-0.4,0.4-0.7,0.8-0.8c0.3-0.1,0.6-0.1,0.9,0.1c0.5,0.4,0.8,0.9,0.8,1.5c0.1,0.8,0.1,1.6,0.1,2.5c1.3-1.8,2.7-3.7,4.1-5.5
	c0.2-0.4,0.6-0.6,1-0.6c0.3,0,0.6,0.1,0.9,0.3c1.2,1,2.1,2.3,2.6,3.8c0.3,0.8,0.5,1.6,0.5,2.5c0.1,4.5-3.8,11.9-8.3,14
	C187.8,115.9,171.7,143.1,167.9,143.1z M151.2,126.6c5.5,6.2,14.3,15.2,16.7,15.5l0,0c2.1,0,13-16.5,22.4-32.7
	c0.1-0.1,0.1-0.2,0.2-0.2c4.1-1.8,7.9-8.9,7.8-13.1c0-0.7-0.2-1.5-0.5-2.2c-0.4-1.3-1.2-2.5-2.3-3.4c-0.1-0.1-0.2-0.1-0.2-0.1
	c-0.1,0.1-0.2,0.2-0.2,0.2c-1.8,2.3-3.5,4.6-5.2,6.9c-0.2,0.2-0.5,0.3-0.7,0.1c-0.2-0.1-0.2-0.3-0.2-0.5c0.2-1.3,0.2-2.7,0.1-4.1
	c0-0.3-0.1-0.5-0.3-0.7c-0.1,0.1-0.1,0.2-0.2,0.3c-1.7,3.8-2.9,7.8-3.4,11.9c-0.2,2.4-14.5,18.1-17.4,21.3c-0.1,0.1-0.2,0.2-0.4,0.2
	c-0.1,0-0.3-0.1-0.4-0.2l-9-9.3L151.2,126.6z"/>
<path class="st0" d="M91.3,255.9c0,0-3.3,9-1.8,9.9c1.5,0.9,30.6,0,28.8-1.7c-1.8-1.7-9.5-7.6-9.5-7.6"/>
<path class="st1" d="M96.2,266.6c-3.7,0-6.5-0.1-7-0.4c-1.6-0.9,0.3-7,1.6-10.5c0.1-0.3,0.4-0.4,0.7-0.3c0.3,0.1,0.4,0.4,0.3,0.6
	c-1.6,4.5-2.6,8.8-2,9.3c2,0.9,24.8-0.2,27.9-1.2c-2.1-2-9.1-7.2-9.1-7.2c-0.2-0.2-0.3-0.5-0.1-0.7c0.2-0.2,0.5-0.3,0.7-0.1
	c0.3,0.2,7.8,5.9,9.6,7.6c0.3,0.2,0.3,0.7,0.1,0.9C117.7,266,104.6,266.6,96.2,266.6z"/>
<path class="st0" d="M120.8,83.4c-1.4-0.1-2.8-0.3-4.4-0.4c-1.6-0.1-3.4-0.7-3.4-2.2c0-1.3,1.5-2.3,1.2-3.6
	c-0.1-0.3-0.3-0.6-0.5-0.9c-4.4-5.9-3.4-14.3,2.4-18.9c-0.4,0.1-0.9-0.3-0.9-0.7c0-0.4,0.2-0.9,0.5-1.2c1.1-1.2,2.6-2.1,4.2-2.5
	c5-1.6,10.4-1.6,15.5,0c3.9,1.1,8.5,4.2,8,8.9c-0.1,1.7-1.5,3.2-3.2,3.4c-0.9,5-3.5,8.4-6.8,12c-2.2,2.5-5,4.4-8.1,5.5
	C123.7,83.3,122.3,83.5,120.8,83.4z"/>
<path class="st1" d="M121.4,84h-0.6l0,0c-0.8,0-1.6-0.1-2.5-0.2c-0.6-0.1-1.2-0.1-1.9-0.2c-2.4-0.2-3.9-1.2-3.9-2.7
	c0-0.7,0.3-1.4,0.7-1.9c0.3-0.6,0.6-1,0.5-1.5c-0.1-0.2-0.2-0.5-0.4-0.7c-4.5-5.9-3.7-14.2,1.7-19.2c-0.2-0.2-0.4-0.5-0.4-0.9
	c0-0.6,0.2-1.1,0.6-1.6c1.2-1.3,2.7-2.2,4.4-2.6c5.1-1.6,10.6-1.6,15.8,0c4.5,1.3,8.9,4.7,8.3,9.4c-0.2,1.8-1.5,3.4-3.2,3.8
	c-1,5.1-3.9,8.7-6.8,11.9c-2.3,2.5-5.1,4.5-8.3,5.7C124.1,83.7,122.7,84,121.4,84z M116,56.9c0.2,0,0.4,0.1,0.5,0.3
	c0.1,0.2,0.1,0.5-0.1,0.6c-5.5,4.5-6.5,12.5-2.3,18.2c0.3,0.3,0.5,0.7,0.6,1.1c0.1,0.8-0.1,1.6-0.6,2.3c-0.3,0.4-0.5,0.9-0.5,1.4
	c0,1.3,2.5,1.6,3,1.7c0.7,0,1.3,0.1,1.9,0.2c0.8,0.1,1.6,0.2,2.4,0.2l0,0c1.4,0.1,2.8-0.1,4.1-0.6c3-1.1,5.8-3,7.9-5.4
	c3.6-4,5.9-7.2,6.6-11.8c0-0.2,0.2-0.4,0.5-0.4c1.5-0.2,2.6-1.4,2.7-2.9c0.5-4.7-4.6-7.4-7.6-8.3c-4.9-1.5-10.2-1.5-15.2,0
	c-1.5,0.4-2.9,1.2-3.9,2.4c-0.2,0.2-0.4,0.5-0.4,0.8c0,0.1,0.1,0.2,0.2,0.3L116,56.9z"/>
<path class="st0" d="M100.1,113.4c0,0-10.7,21.9-9.9,28.6s23,4.1,23,4.1l-1.2-33.2L100.1,113.4z"/>
<path class="st1" d="M104,147.1c-0.7,0-1.4,0-2,0c-7.8-0.2-11.9-1.9-12.3-5c-0.9-6.8,9.5-27.9,9.9-28.8c0.1-0.2,0.3-0.3,0.4-0.3
	l11.9-0.6c0.1,0,0.3,0,0.4,0.1c0.1,0.1,0.2,0.2,0.2,0.4l1.2,33.2c0,0.3-0.2,0.5-0.4,0.5C110.2,146.9,107.1,147.1,104,147.1z
	 M100.4,113.9c-1.2,2.5-10.5,21.9-9.7,28c0.7,5,15.7,4.4,22,3.7l-1.1-32.2L100.4,113.9z"/>
<path class="st0" d="M142.9,251.6l0.6,14.2c0,0,26.6,0.2,25.1-1.7s-13.6-10.5-13.6-10.5l-1.9-10.5L142.9,251.6z"/>
<path class="st1" d="M146.9,266.3h-3.4c-0.3,0-0.5-0.2-0.5-0.5l-0.6-14.2c0-0.2,0.1-0.3,0.2-0.4l10.1-8.5c0.1-0.1,0.3-0.1,0.5-0.1
	c0.2,0.1,0.3,0.2,0.3,0.4l1.9,10.3c1.5,1.1,12,8.6,13.5,10.5c0.2,0.2,0.2,0.5,0.1,0.8C168.3,266,156.1,266.3,146.9,266.3z
	 M144,265.3c10.7,0.1,22.1-0.3,24-1.1c-1.7-1.8-9.3-7.4-13.3-10.1c-0.1-0.1-0.2-0.2-0.2-0.3l-1.8-9.6l-9.2,7.8L144,265.3z"/>
<path class="st1" d="M147.7,152L158,255.5l-17.1,0.4l-19.4-73.1l-10.8,73.8l-19.8-1c0,0,3.5-41.2,5.2-56.8s4.6-42.8,4.6-42.8
	L147.7,152z"/>
<path class="st0" d="M141.3,72.5c0,0,3.6,5.9,2.7,7s-3.4,0.3-3.4,0.3"/>
<path class="st1" d="M142.5,80.7c-0.7,0-1.4-0.1-2-0.4c-0.3-0.1-0.4-0.4-0.2-0.7c0.1-0.2,0.3-0.3,0.6-0.3c0.7,0.2,2.4,0.5,2.8-0.1
	c0.5-0.6-1-3.5-2.8-6.5c-0.2-0.2-0.1-0.5,0.1-0.7c0.2-0.2,0.5-0.1,0.7,0.1c0,0,0.1,0.1,0.1,0.1c1.1,1.8,3.6,6.3,2.7,7.6
	C144,80.4,143.3,80.7,142.5,80.7z"/>
<path class="st0" d="M140.8,64.9c2.3,2,1.5,6.2,1.3,8.9c-0.2,3.8-0.4,7.6-0.8,11.4c-0.2,2.4-6.5,2.2-7.5,1.5l0.6,9.6l-12.9-5.5
	l0.8-11c0,0,4.1,0.2,6.7-4.6c2.6-4.8,2.8-12.4,2.8-12.4S138.6,62.9,140.8,64.9z"/>
<path class="st1" d="M134.5,96.7c-0.1,0-0.1,0-0.2,0l-12.9-5.5c-0.2-0.1-0.3-0.3-0.3-0.5l0.8-11c0-0.3,0.3-0.5,0.5-0.5
	c0.2,0,3.8,0.1,6.3-4.4c2.5-4.6,2.8-12.1,2.8-12.2c0-0.1,0.1-0.3,0.2-0.4c0.1-0.1,0.2-0.1,0.4-0.1c0.3,0,6.8,0.2,9.2,2.3l0,0
	c2.1,1.9,1.8,5.2,1.6,7.8c0,0.5-0.1,1-0.1,1.5c-0.2,3.8-0.4,7.6-0.8,11.4c-0.1,0.8-0.7,1.5-1.5,1.8c-1.9,0.7-4,0.8-6,0.4l0.6,8.8
	C135,96.4,134.8,96.7,134.5,96.7C134.5,96.7,134.5,96.7,134.5,96.7L134.5,96.7z M122.1,90.4l11.8,5.1l-0.5-8.7
	c0-0.2,0.1-0.4,0.3-0.5c0.2-0.1,0.4-0.1,0.5,0c1.9,0.6,4,0.6,5.8-0.1c0.6-0.3,0.9-0.6,0.9-1c0.4-3.8,0.6-7.6,0.8-11.4
	c0-0.5,0.1-1,0.1-1.5c0.2-2.4,0.5-5.4-1.3-7l0,0c-1.8-1.6-6.5-2-8.1-2c-0.1,1.8-0.6,7.9-2.9,12.1c-2.3,4.2-5.5,4.8-6.7,4.9
	L122.1,90.4z"/>
<path class="st3" d="M160.7,116.8c0,0-15.3-16.1-21.3-22.2c-5.6-5.6-21.9-10.7-29.4-2.7c0,0-12.2,17-14.6,26.9l7.1,4.4
	c-1.6,11.7-2.5,23.6-2.7,35.4c13.5,10.7,47.9-6.6,47.9-6.6l-3.1-24.4l5.6,5.6L160.7,116.8z"/>
<path class="st0" d="M141.4,82.4c0,0-3,1.7-4.5-1.4"/>
<path class="st1" d="M139.6,83.4c-0.3,0-0.7-0.1-1-0.2c-1-0.3-1.7-1.1-2.1-2c-0.1-0.3,0-0.6,0.2-0.7c0.3-0.1,0.6,0,0.7,0.2
	c0.3,0.7,0.8,1.2,1.5,1.5c0.8,0.2,1.6,0.1,2.3-0.3c0.2-0.1,0.6,0,0.7,0.2c0.1,0.2,0.1,0.5-0.2,0.7c0,0,0,0,0,0
	C141,83.1,140.3,83.3,139.6,83.4z"/>
<path class="st0" d="M134,74.7c-0.1-1-0.4-1.9-1-2.6c-0.3-0.7-0.8-1.3-1.3-1.8c-0.5-0.5-1.3-0.8-2-0.7c-0.7,0.1-1.2,0.5-1.5,1.1
	c-0.3,0.6-0.5,1.2-0.5,1.9c-0.2,2.9,1.1,5.7,3.5,7.4l-0.2-0.2"/>
<path class="st1" d="M131.1,80.4c-0.1,0-0.2,0-0.3-0.1c-2.5-1.8-4-4.8-3.7-7.8c0.1-0.7,0.3-1.4,0.6-2c0.4-0.7,1.1-1.2,1.9-1.4
	c0.9-0.1,1.8,0.2,2.5,0.8c0.6,0.5,1,1.2,1.4,1.9c0.6,0.9,1,1.9,1,2.9c0,0.3-0.2,0.5-0.5,0.5c-0.3,0-0.5-0.2-0.5-0.5
	c-0.1-0.9-0.4-1.7-0.9-2.4c-0.3-0.6-0.7-1.2-1.2-1.7c-0.4-0.4-1-0.6-1.6-0.6c-0.5,0.1-0.9,0.4-1.2,0.9c-0.3,0.5-0.4,1.1-0.5,1.6
	c-0.2,2.5,0.9,5,2.8,6.6c0.1,0,0.2,0.1,0.3,0.2l0.2,0.2c0.2,0.2,0.2,0.5,0,0.7C131.3,80.4,131.2,80.4,131.1,80.4z"/>
<path class="st1" d="M133.8,86.7c-1.8-0.7-3.4-1.9-4.6-3.4c0,0,0,5.8,4.9,7.7L133.8,86.7z"/>
<path class="st1" d="M134.1,91.4h-0.2c-5.2-2-5.2-8.1-5.2-8.1c0-0.2,0.1-0.4,0.4-0.5c0.2-0.1,0.4,0,0.6,0.2c1.1,1.4,2.6,2.5,4.3,3.1
	c0.2,0.1,0.3,0.2,0.3,0.4l0.3,4.3c0,0.2-0.1,0.3-0.2,0.4C134.3,91.4,134.2,91.4,134.1,91.4z M129.9,84.9c0.4,2.2,1.7,4.1,3.6,5.2
	l-0.2-3C132.1,86.5,130.9,85.8,129.9,84.9z"/>
<path class="st1" d="M145,129.3c-0.1,0-0.3-0.1-0.4-0.2c-3.9-4-7.5-8.2-11-12.6c-0.2-0.2-0.1-0.5,0.1-0.7c0.2-0.2,0.5-0.1,0.7,0.1
	c3.4,4.4,7,8.5,10.9,12.5c0.2,0.2,0.2,0.5,0,0.7c0,0,0,0,0,0C145.3,129.3,145.2,129.3,145,129.3z"/>
<path class="st0" d="M121.2,181.2c-0.1,0-0.2,0-0.3-0.1c-0.3-0.2-6.3-5.4-6.3-13.5c0-0.3,0.2-0.5,0.5-0.5l0,0c0.3,0,0.5,0.2,0.5,0.5
	c0,0,0,0,0,0c0,7.6,5.9,12.7,6,12.7c0.2,0.2,0.2,0.5,0.1,0.7C121.5,181.2,121.4,181.2,121.2,181.2z"/>
<ellipse transform="matrix(0.2047 -0.9788 0.9788 0.2047 42.4307 191.8665)" class="st1" cx="139.3" cy="69.8" rx="1.4" ry="0.5"/>
<path class="st1" d="M102.4,120.2L102.4,120.2c-0.4-0.1-0.5-0.3-0.5-0.6c0.1-0.7,3-18.2,6.2-24.1c0.1-0.2,0.4-0.3,0.7-0.2
	c0,0,0,0,0,0c0.2,0.1,0.3,0.4,0.2,0.7c0,0,0,0,0,0c-3.1,5.7-6,23.5-6.1,23.7C102.8,120,102.6,120.2,102.4,120.2z"/>
<path class="st1" d="M293.5,198.7c0.1-1.9-0.3-3.8-1.2-5.5c-0.7-1.2-1.9-2.2-2.5-3.5c-1-2.3-0.3-4.9-0.6-7.4c-0.2-2.1-1.1-4-2.6-5.5
	c-1.3-1.3-3-2.2-4.2-3.6c-2-2.2-2.6-5.4-3.7-8.1c-1.6-3.9-4.5-7.3-8.1-9.5c2.2,4.4-2.8,10.1-0.5,14.5c0.7,1.4,2.1,2.4,2.6,3.9
	c1.3,3.6-3,7.4-1.6,11c0.7,1.8,2.6,2.8,3.5,4.5c1.2,2.3,0.3,5,0.3,7.6c0.1,3.5,2.3,6.7,4.8,9.1c1.6,1.5,3.3,2.8,5.1,4.2
	c2,1.6,2.9,3.4,4.7,0.7C292,207.4,293.4,203.1,293.5,198.7z"/>
<path class="st1" d="M295.8,200.7c-0.7-2.7-1.1-5.7,0-8.3c1.2-2.9,4.4-5,4.8-8.1c0.2-2-0.8-4.2-0.4-6.2c0.4-2,2-3.4,3.4-4.9
	c3.2-3.5,5-7.9,5.3-12.6c2.1,2.5,3.8,5.3,5.1,8.4c1.1,3.1,1.1,6.7-0.7,9.4c-0.5,0.6-1,1.3-1.3,2.1c-0.6,2,1.1,3.9,2,5.8
	c1.1,2.2,0.8,4.8-0.6,6.8c-1.8,2.2-5.3,3.1-6.2,5.8c-0.2,1-0.3,2.1-0.3,3.1c-0.4,3.7-3,6.8-6.6,7.8c-2.1,0.5-2.1-0.3-2.5-2.1
	C297.3,205.4,296.4,203.1,295.8,200.7z"/>
<path class="st1" d="M289,181.1c-1.5-5.2-2.1-10.7-3.7-15.9c-1.4-4.1-3-8-5-11.9l6.5,2.7c2.1,0.9,4.3,1.9,5.3,3.9
	c1.7,3.5-1.4,8.1,0.4,11.6c0.8,1.1,1.6,2.2,2.6,3.2c1.9,2.7,1.6,6.4,0.6,9.5c-0.5,1.3-2.4,8.3-4.2,6.4c-0.7-0.8-0.8-3.6-1.1-4.7
	C290,184.3,289.5,182.7,289,181.1z"/>
<path class="st1" d="M292.6,250.6c-1.3-8.6-5.4-38.7-5.4-39l1-0.1c0,0.3,4.1,30.4,5.4,39L292.6,250.6z"/>
<path class="st1" d="M294,258.7h-1c0.1-10.2,4.3-48.9,6.7-51.6l0.8,0.7C298.9,209.5,294.1,244.8,294,258.7z"/>
<path class="st1" d="M296.2,256.7h-1c1-21.9-3.7-67.9-3.7-68.3l1-0.1C292.5,188.7,297.2,234.8,296.2,256.7z"/>
<path class="st0" d="M281.4,226.1h24.2l-1.7,27.4c-0.3,4.8-3.8,8.4-8.1,8.4h-4.7c-4.2,0-7.8-3.7-8-8.4L281.4,226.1z"/>
<path class="st1" d="M295.8,262.5h-4.7c-4.5,0-8.3-3.9-8.6-8.9l-1.7-27.4c0-0.3,0.2-0.5,0.5-0.6c0,0,0,0,0,0h24.2
	c0.1,0,0.3,0.1,0.4,0.2c0.1,0.1,0.1,0.3,0.1,0.4l-1.7,27.4C304.1,258.6,300.3,262.5,295.8,262.5z M282,226.6l1.7,26.9
	c0.3,4.5,3.6,7.9,7.5,7.9h4.7c3.9,0,7.3-3.5,7.5-7.9l1.7-26.9L282,226.6z"/>
<polygon class="st0" points="305.7,131.1 256,131.1 267.2,47.7 316.9,47.7 "/>
<path class="st1" d="M305.7,131.7H256c-0.1,0-0.3-0.1-0.4-0.2c-0.1-0.1-0.1-0.3-0.1-0.4l11.2-83.5c0-0.3,0.3-0.4,0.5-0.4h49.7
	c0.1,0,0.3,0.1,0.4,0.2c0.1,0.1,0.1,0.3,0.1,0.4l-11.2,83.5C306.2,131.5,305.9,131.7,305.7,131.7z M256.6,130.7h48.6l11.1-82.5
	h-48.6L256.6,130.7z"/>
<path class="st3" d="M297.3,118.8h-28.5c-1.8,0-3.2-1.4-3.3-3.1c0-0.2,0-0.4,0-0.6l0.4-2.9c0.3-2.1,2.1-3.7,4.3-3.7h28.5
	c1.8,0,3.2,1.3,3.3,3.1c0,0.2,0,0.4,0,0.6l-0.4,2.9C301.2,117.1,299.4,118.7,297.3,118.8z"/>
<path class="st0" d="M299.3,103.4h-28.5c-1.8,0-3.2-1.3-3.3-3.1c0-0.2,0-0.4,0-0.6l0.4-2.9c0.3-2.1,2.1-3.7,4.3-3.7h28.5
	c1.8,0,3.2,1.4,3.3,3.1c0,0.2,0,0.4,0,0.6l-0.4,2.9C303.3,101.8,301.5,103.4,299.3,103.4z"/>
<path class="st2" d="M299.3,103.9h-28.5c-1.1,0-2.1-0.4-2.9-1.3c-0.7-0.8-1-2-0.9-3l0.4-2.9c0.4-2.4,2.4-4.1,4.8-4.2h28.5
	c1.1,0,2.1,0.4,2.9,1.3c0.7,0.8,1,2,0.9,3l-0.4,2.9C303.7,102.1,301.7,103.9,299.3,103.9z M272.2,93.5c-1.9,0.1-3.5,1.4-3.7,3.3
	l-0.4,2.9c-0.1,0.8,0.1,1.6,0.6,2.3c0.5,0.6,1.3,0.9,2.1,0.9h28.5c1.9-0.1,3.5-1.4,3.7-3.3l0.4-2.9c0.1-0.8-0.1-1.6-0.6-2.3
	c-0.5-0.6-1.3-0.9-2.1-0.9H272.2z"/>
<path class="st0" d="M301.4,88h-28.5c-1.8,0-3.2-1.3-3.3-3.1c0-0.2,0-0.4,0-0.6l0.4-2.9c0.3-2.1,2.1-3.7,4.2-3.7h28.5
	c1.8,0,3.2,1.3,3.3,3.1c0,0.2,0,0.4,0,0.6l-0.4,2.9C305.3,86.4,303.5,88,301.4,88z"/>
<path class="st2" d="M301.4,88.6h-28.5c-2,0.1-3.7-1.6-3.8-3.6c0-0.2,0-0.5,0.1-0.7l0.4-2.9c0.4-2.4,2.4-4.1,4.8-4.2h28.5
	c2-0.1,3.7,1.6,3.8,3.6c0,0.2,0,0.5-0.1,0.7l-0.4,2.9C305.8,86.8,303.8,88.5,301.4,88.6z M274.3,78.2c-1.9,0.1-3.5,1.4-3.7,3.3
	l-0.4,2.9c-0.1,0.8,0.1,1.6,0.6,2.3c0.5,0.6,1.3,0.9,2.1,0.9h28.5c1.9-0.1,3.5-1.4,3.7-3.3l0.4-2.9c0.3-1.5-0.7-2.9-2.2-3.1
	c-0.2,0-0.4,0-0.6,0H274.3z"/>
<path class="st0" d="M303.5,72.7H275c-1.8,0-3.2-1.4-3.3-3.1c0-0.2,0-0.4,0-0.6l0.4-2.9c0.3-2.1,2.1-3.7,4.3-3.7h28.5
	c1.8,0,3.2,1.3,3.3,3.1c0,0.2,0,0.4,0,0.6l-0.4,2.9C307.4,71.1,305.6,72.7,303.5,72.7z"/>
<path class="st2" d="M303.5,73.2H275c-1.1,0-2.2-0.4-2.9-1.3c-0.7-0.8-1-2-0.9-3l0.4-2.9c0.4-2.4,2.4-4.1,4.8-4.2h28.5
	c1.1,0,2.1,0.4,2.9,1.3c0.7,0.8,1,2,0.9,3l-0.4,2.9C307.8,71.4,305.8,73.1,303.5,73.2z M276.3,62.8c-1.9,0.1-3.5,1.4-3.7,3.3
	l-0.4,2.9c-0.3,1.5,0.7,2.9,2.2,3.1c0.2,0,0.4,0,0.6,0h28.6c1.9-0.1,3.4-1.4,3.7-3.3l0.4-2.9c0.1-0.8-0.1-1.6-0.6-2.3
	c-0.5-0.6-1.3-0.9-2.1-0.9H276.3z"/>
<path class="st2" d="M302.3,56h-21.9c-0.3,0-0.5-0.2-0.5-0.5c0-0.3,0.2-0.5,0.5-0.5h21.9c0.3,0,0.5,0.2,0.5,0.5S302.6,56,302.3,56
	L302.3,56z"/>
</svg>
